#!OML:ASF H:\Pregnant\Project 1\Capture day 1\Session 1\femalepreg.ASF
:FULLY-SPECIFIED
:DEGREES
1081
root 6.32866 14.9125 22.1513 -160.111 180.835 -173.776
lowerback -12.8691 -1.05925 -5.71159
upperback -6.90584 -0.757632 -1.2924
thorax -0.000649723 -0.255365 1.77001
lowerneck -25.0736 4.42891 6.6604
upperneck 35.4787 5.56402 -4.52519
head 17.6933 2.49093 -1.98594
rclavicle 1.61844e-014 -2.13694e-014
rhumerus -74.3573 5.6417 -82.2228
rradius 27.5124
rwrist -14.1265
rhand -3.89201 -14.9655
rfingers 7.12502
rthumb 21.8577 -43.751
lclavicle 1.61844e-014 -2.13694e-014
lhumerus -27.455 -14.6761 84.2339
lradius 88.6598
lwrist 32.4421
lhand -38.4659 -31.2719
lfingers 7.12502
lthumb -11.4886 -1.60669
rfemur -61.8763 4.90226 19.7376
rtibia 93.5627
rfoot -6.78265 -7.18092
rtoes -9.13496
lfemur -29.213 -16.035 -30.2722
ltibia 30.5002
lfoot -14.1291 -3.35349
ltoes -12.0148
1082
root 6.32258 14.9086 22.3106 -160.269 180.603 -173.663
lowerback -12.7593 -1.20669 -5.82841
upperback -6.79311 -0.943266 -1.26104
thorax 0.073707 -0.348619 1.84507
lowerneck -25.1107 4.42963 6.67111
upperneck 35.3761 5.55235 -4.53174
head 17.6467 2.48527 -1.99105
rclavicle 1.16114e-014 1.31198e-014
rhumerus -75.0898 5.70987 -82.0094
rradius 28.3166
rwrist -15.0689
rhand -3.73245 -14.903
rfingers 7.12502
rthumb 22.0109 -43.6706
lclavicle 1.16114e-014 1.31198e-014
lhumerus -26.4133 -14.8971 83.8502
lradius 89.8312
lwrist 32.3184
lhand -38.5028 -30.8986
lfingers 7.12502
lthumb -11.5242 -1.23537
rfemur -63.0856 4.82598 19.6044
rtibia 92.8907
rfoot -6.89274 -7.54434
rtoes -9.07482
lfemur -28.0591 -16.0597 -30.5428
ltibia 30.0072
lfoot -14.3726 -3.50802
ltoes -12.3147
1083
root 6.31529 14.9048 22.4672 -160.375 180.356 -173.577
lowerback -12.666 -1.34313 -5.92249
upperback -6.68996 -1.11601 -1.23612
thorax 0.146324 -0.435992 1.90216
lowerneck -25.1815 4.39731 6.64599
upperneck 35.2846 5.48815 -4.49852
head 17.6065 2.45908 -1.98346
rclavicle 1.42255e-014 1.76918e-014
rhumerus -75.7356 5.68935 -81.733
rradius 29.0736
rwrist -15.9001
rhand -3.70738 -14.8167
rfingers 7.12502
rthumb 22.0349 -43.5814
lclavicle 1.42255e-014 1.76918e-014
lhumerus -25.3143 -15.1706 83.4487
lradius 90.8833
lwrist 32.1198
lhand -38.5468 -30.5267
lfingers 7.12502
lthumb -11.5667 -0.865837
rfemur -64.2774 4.75612 19.4861
rtibia 92.038
rfoot -6.95965 -7.94217
rtoes -9.09029
lfemur -26.9825 -16.0464 -30.7583
ltibia 29.5041
lfoot -14.5756 -3.72158
ltoes -12.6352
1084
root 6.30721 14.904 22.6237 -160.447 180.073 -173.525
lowerback -12.6011 -1.47331 -5.97685
upperback -6.58396 -1.2825 -1.21058
thorax 0.236905 -0.521743 1.93793
lowerneck -25.2944 4.34044 6.59318
upperneck 35.2042 5.38591 -4.43873
head 17.5773 2.41722 -1.96735
rclavicle -1.46759e-015 9.93923e-015
rhumerus -76.2922 5.59965 -81.4095
rradius 29.7804
rwrist -16.6341
rhand -3.75674 -14.7201
rfingers 7.12502
rthumb 21.9875 -43.4904
lclavicle -1.46759e-015 9.93923e-015
lhumerus -24.1619 -15.4957 83.0361
lradius 91.8232
lwrist 31.9
lhand -38.601 -30.2132
lfingers 7.12502
lthumb -11.6189 -0.555367
rfemur -65.3715 4.67341 19.392
rtibia 90.9717
rfoot -6.9944 -8.37511
rtoes -9.03672
lfemur -25.9442 -16.0253 -30.9103
ltibia 28.9887
lfoot -14.7384 -4.00022
ltoes -12.816
1085
root 6.29764 14.9058 22.779 -160.49 179.748 -173.511
lowerback -12.5204 -1.59871 -5.99893
upperback -6.49542 -1.44825 -1.18012
thorax 0.300644 -0.606812 1.9612
lowerneck -25.4149 4.26005 6.51649
upperneck 35.1333 5.24958 -4.35579
head 17.5504 2.3619 -1.9444
rclavicle 1.963e-014 -1.19271e-014
rhumerus -76.7903 5.46082 -81.0664
rradius 30.4409
rwrist -17.3098
rhand -3.83966 -14.6164
rfingers 7.12502
rthumb 21.9079 -43.396
lclavicle 1.963e-014 -1.19271e-014
lhumerus -22.9974 -15.8697 82.6243
lradius 92.6529
lwrist 31.6797
lhand -38.6601 -29.973
lfingers 7.12502
lthumb -11.6758 -0.318331
rfemur -66.3656 4.59146 19.3248
rtibia 89.691
rfoot -6.98035 -8.86677
rtoes -8.89086
lfemur -24.9447 -15.9957 -30.9902
ltibia 28.4615
lfoot -14.8432 -4.35908
ltoes -12.8298
